{
	"asset":{
		"generator":"Khronos glTF Blender I/O v4.4.56",
		"version":"2.0"
	},
	"scene":0,
	"scenes":[
		{
			"name":"Scene",
			"nodes":[
				7
			]
		}
	],
	"nodes":[
		{
			"mesh":0,
			"name":"Object_4",
			"translation":[
				0,
				44.736690521240234,
				1326.0413818359375
			]
		},
		{
			"mesh":1,
			"name":"Object_5",
			"scale":[
				0.05000000447034836,
				0.04999999701976776,
				0.04999999701976776
			],
			"translation":[
				0,
				44.736690521240234,
				1326.0413818359375
			]
		},
		{
			"mesh":2,
			"name":"Object_6",
			"translation":[
				0,
				44.736690521240234,
				1326.0413818359375
			]
		},
		{
			"mesh":3,
			"name":"Object_7",
			"translation":[
				0,
				44.736690521240234,
				1326.0413818359375
			]
		},
		{
			"children":[
				0,
				1,
				2,
				3
			],
			"name":"t-shirt.002_2",
			"rotation":[
				0.70710688829422,
				0,
				0,
				0.7071066498756409
			],
			"scale":[
				0.039488013833761215,
				0.03948801010847092,
				0.03948801010847092
			]
		},
		{
			"children":[
				4
			],
			"name":"GLTF_SceneRootNode",
			"rotation":[
				0.70710688829422,
				0,
				0,
				0.7071066498756409
			]
		},
		{
			"children":[
				5
			],
			"name":"root"
		},
		{
			"children":[
				6
			],
			"name":"Sketchfab_model",
			"rotation":[
				-0.70710688829422,
				0,
				0,
				0.7071066498756409
			]
		}
	],
	"materials":[
		{
			"doubleSided":true,
			"name":"FABRIC_1_FRONT_4193",
			"pbrMetallicRoughness":{
				"baseColorFactor":[
					0.7822375893592834,
					0.7822375893592834,
					0.7822375893592834,
					1
				],
				"metallicFactor":0.7738920450210571,
				"roughnessFactor":0.950217068195343
			}
		}
	],
	"meshes":[
		{
			"name":"Object_0",
			"primitives":[
				{
					"attributes":{
						"POSITION":0,
						"NORMAL":1,
						"TEXCOORD_0":2
					},
					"indices":3,
					"material":0
				}
			]
		},
		{
			"name":"Object_1",
			"primitives":[
				{
					"attributes":{
						"POSITION":4,
						"NORMAL":5,
						"TEXCOORD_0":6
					},
					"indices":7,
					"material":0
				}
			]
		},
		{
			"name":"Object_2",
			"primitives":[
				{
					"attributes":{
						"POSITION":8,
						"NORMAL":9,
						"TEXCOORD_0":10
					},
					"indices":11,
					"material":0
				}
			]
		},
		{
			"name":"Object_3",
			"primitives":[
				{
					"attributes":{
						"POSITION":12,
						"NORMAL":13,
						"TEXCOORD_0":14
					},
					"indices":15,
					"material":0
				}
			]
		}
	],
	"accessors":[
		{
			"bufferView":0,
			"componentType":5126,
			"count":81712,
			"max":[
				196.2371826171875,
				-8.076424598693848,
				-1051.115966796875
			],
			"min":[
				-192.81201171875,
				-179.5301513671875,
				-1664.290283203125
			],
			"type":"VEC3"
		},
		{
			"bufferView":1,
			"componentType":5126,
			"count":81712,
			"type":"VEC3"
		},
		{
			"bufferView":2,
			"componentType":5126,
			"count":81712,
			"type":"VEC2"
		},
		{
			"bufferView":3,
			"componentType":5125,
			"count":455334,
			"type":"SCALAR"
		},
		{
			"bufferView":4,
			"componentType":5126,
			"count":65533,
			"max":[
				302.25982666015625,
				90.02058410644531,
				-1075.6983642578125
			],
			"min":[
				-299.9200134277344,
				-179.74392700195312,
				-1675.332763671875
			],
			"type":"VEC3"
		},
		{
			"bufferView":5,
			"componentType":5126,
			"count":65533,
			"type":"VEC3"
		},
		{
			"bufferView":6,
			"componentType":5126,
			"count":65533,
			"type":"VEC2"
		},
		{
			"bufferView":7,
			"componentType":5123,
			"count":360492,
			"type":"SCALAR"
		},
		{
			"bufferView":8,
			"componentType":5126,
			"count":80588,
			"max":[
				292.9559020996094,
				89.89900970458984,
				-1052.814208984375
			],
			"min":[
				-290.38958740234375,
				-178.50897216796875,
				-1665.561767578125
			],
			"type":"VEC3"
		},
		{
			"bufferView":9,
			"componentType":5126,
			"count":80588,
			"type":"VEC3"
		},
		{
			"bufferView":10,
			"componentType":5126,
			"count":80588,
			"type":"VEC2"
		},
		{
			"bufferView":11,
			"componentType":5125,
			"count":440142,
			"type":"SCALAR"
		},
		{
			"bufferView":12,
			"componentType":5126,
			"count":5002,
			"max":[
				195.2762908935547,
				87.61376953125,
				-1051.103271484375
			],
			"min":[
				-175.6524200439453,
				-178.50897216796875,
				-1662.4554443359375
			],
			"type":"VEC3"
		},
		{
			"bufferView":13,
			"componentType":5126,
			"count":5002,
			"type":"VEC3"
		},
		{
			"bufferView":14,
			"componentType":5126,
			"count":5002,
			"type":"VEC2"
		},
		{
			"bufferView":15,
			"componentType":5123,
			"count":27033,
			"type":"SCALAR"
		}
	],
	"bufferViews":[
		{
			"buffer":0,
			"byteLength":980544,
			"byteOffset":0,
			"target":34962
		},
		{
			"buffer":0,
			"byteLength":980544,
			"byteOffset":980544,
			"target":34962
		},
		{
			"buffer":0,
			"byteLength":653696,
			"byteOffset":1961088,
			"target":34962
		},
		{
			"buffer":0,
			"byteLength":1821336,
			"byteOffset":2614784,
			"target":34963
		},
		{
			"buffer":0,
			"byteLength":786396,
			"byteOffset":4436120,
			"target":34962
		},
		{
			"buffer":0,
			"byteLength":786396,
			"byteOffset":5222516,
			"target":34962
		},
		{
			"buffer":0,
			"byteLength":524264,
			"byteOffset":6008912,
			"target":34962
		},
		{
			"buffer":0,
			"byteLength":720984,
			"byteOffset":6533176,
			"target":34963
		},
		{
			"buffer":0,
			"byteLength":967056,
			"byteOffset":7254160,
			"target":34962
		},
		{
			"buffer":0,
			"byteLength":967056,
			"byteOffset":8221216,
			"target":34962
		},
		{
			"buffer":0,
			"byteLength":644704,
			"byteOffset":9188272,
			"target":34962
		},
		{
			"buffer":0,
			"byteLength":1760568,
			"byteOffset":9832976,
			"target":34963
		},
		{
			"buffer":0,
			"byteLength":60024,
			"byteOffset":11593544,
			"target":34962
		},
		{
			"buffer":0,
			"byteLength":60024,
			"byteOffset":11653568,
			"target":34962
		},
		{
			"buffer":0,
			"byteLength":40016,
			"byteOffset":11713592,
			"target":34962
		},
		{
			"buffer":0,
			"byteLength":54066,
			"byteOffset":11753608,
			"target":34963
		}
	],
	"buffers":[
		{
			"byteLength":11807676,
			"uri":"tshirt.bin"
		}
	]
}
